<svg width="80" height="80" viewBox="0 0 80 80" fill="none" xmlns="http://www.w3.org/2000/svg">
<rect width="80" height="80" rx="16" fill="url(#paint0_linear_1455_174)"/>
<path d="M24 32.796V48.4776H28.9353V32.9552C28.9353 31.8121 29.8619 30.8855 31.005 30.8855C32.1481 30.8855 33.0746 31.8121 33.0746 32.9552V41.5124C33.0746 45.3591 36.1931 48.4776 40.0398 48.4776C43.8865 48.4776 47.005 45.3591 47.005 41.5124V32.7562C47.005 31.7231 47.8425 30.8855 48.8756 30.8855C49.9087 30.8855 50.7463 31.7231 50.7463 32.7562V48.4776H56V32.8756C56 28.9628 52.8282 25.791 48.9154 25.791C45.0027 25.791 41.8308 28.9628 41.8308 32.8756V41.5522C41.8308 42.6073 40.9754 43.4627 39.9204 43.4627C38.8654 43.4627 38.0099 42.6073 38.0099 41.5522V32.796C38.0099 28.9272 34.8738 25.791 31.005 25.791C27.1362 25.791 24 28.9272 24 32.796Z" fill="white"/>
<path d="M24.2061 51.488H24.6681L25.2869 52.9982H25.3112L25.9299 51.488H26.3919V53.5721H26.0297V52.1402H26.0103L25.4343 53.5661H25.1637L24.5877 52.1372H24.5684V53.5721H24.2061V51.488ZM26.6607 51.488H27.087L27.5968 52.4099H27.6172L28.1271 51.488H28.5534L27.7953 52.7946V53.5721H27.4188V52.7946L26.6607 51.488ZM31.3156 52.1912H30.935C30.9241 52.1288 30.9041 52.0735 30.8749 52.0253C30.8458 51.9764 30.8095 51.935 30.7661 51.9011C30.7226 51.8672 30.6731 51.8417 30.6175 51.8248C30.5626 51.8072 30.5032 51.7984 30.4394 51.7984C30.326 51.7984 30.2257 51.8269 30.1382 51.8839C30.0506 51.9401 29.9821 52.0229 29.9326 52.1321C29.8831 52.2407 29.8583 52.3733 29.8583 52.5301C29.8583 52.6895 29.8831 52.8238 29.9326 52.9331C29.9828 53.0416 30.0514 53.1236 30.1382 53.1793C30.2257 53.2343 30.3257 53.2617 30.4384 53.2617C30.5008 53.2617 30.5591 53.2535 30.6134 53.2373C30.6683 53.2203 30.7175 53.1956 30.761 53.163C30.8051 53.1305 30.842 53.0904 30.8719 53.0429C30.9023 52.9955 30.9235 52.9412 30.935 52.8801L31.3156 52.8821C31.3013 52.9811 31.2704 53.0741 31.223 53.161C31.1762 53.2478 31.1147 53.3245 31.0388 53.3909C30.9628 53.4568 30.8738 53.5083 30.7721 53.5457C30.6704 53.5823 30.5575 53.6006 30.4333 53.6006C30.2501 53.6006 30.0866 53.5583 29.9428 53.4734C29.7989 53.3885 29.6857 53.2661 29.6029 53.106C29.5201 52.946 29.4787 52.754 29.4787 52.5301C29.4787 52.3055 29.5204 52.1135 29.6039 51.9541C29.6873 51.794 29.801 51.6715 29.9449 51.5867C30.0886 51.5018 30.2515 51.4595 30.4333 51.4595C30.5492 51.4595 30.6572 51.4757 30.7568 51.5083C30.8566 51.5408 30.9455 51.5887 31.0235 51.6518C31.1015 51.7142 31.1657 51.7909 31.2158 51.8818C31.2668 51.9721 31.3 52.0751 31.3156 52.1912ZM33.5236 52.5301C33.5236 52.7546 33.4816 52.9469 33.3974 53.1071C33.314 53.2664 33.2 53.3885 33.0554 53.4734C32.9116 53.5583 32.7485 53.6006 32.566 53.6006C32.3836 53.6006 32.2201 53.5583 32.0755 53.4734C31.9316 53.3879 31.8178 53.2655 31.7335 53.106C31.6501 52.946 31.6084 52.754 31.6084 52.5301C31.6084 52.3055 31.6501 52.1135 31.7335 51.9541C31.8178 51.794 31.9316 51.6715 32.0755 51.5867C32.2201 51.5018 32.3836 51.4595 32.566 51.4595C32.7485 51.4595 32.9116 51.5018 33.0554 51.5867C33.2 51.6715 33.314 51.794 33.3974 51.9541C33.4816 52.1135 33.5236 52.3055 33.5236 52.5301ZM33.1441 52.5301C33.1441 52.372 33.1193 52.2386 33.0697 52.13C33.0209 52.0208 32.953 51.9385 32.8663 51.8828C32.7793 51.8266 32.6792 51.7984 32.566 51.7984C32.4527 51.7984 32.3527 51.8266 32.2658 51.8828C32.179 51.9385 32.1107 52.0208 32.0612 52.13C32.0125 52.2386 31.9879 52.372 31.9879 52.5301C31.9879 52.688 32.0125 52.8218 32.0612 52.931C32.1107 53.0396 32.179 53.122 32.2658 53.1782C32.3527 53.234 32.4527 53.2617 32.566 53.2617C32.6792 53.2617 32.7793 53.234 32.8663 53.1782C32.953 53.122 33.0209 53.0396 33.0697 52.931C33.1193 52.8218 33.1441 52.688 33.1441 52.5301ZM33.8806 53.5721V51.488H34.258V53.2556H35.176V53.5721H33.8806ZM37.2848 52.5301C37.2848 52.7546 37.2428 52.9469 37.1586 53.1071C37.0752 53.2664 36.9612 53.3885 36.8166 53.4734C36.6728 53.5583 36.5097 53.6006 36.3272 53.6006C36.1448 53.6006 35.9813 53.5583 35.8367 53.4734C35.6928 53.3879 35.579 53.2655 35.4947 53.106C35.4113 52.946 35.3696 52.754 35.3696 52.5301C35.3696 52.3055 35.4113 52.1135 35.4947 51.9541C35.579 51.794 35.6928 51.6715 35.8367 51.5867C35.9813 51.5018 36.1448 51.4595 36.3272 51.4595C36.5097 51.4595 36.6728 51.5018 36.8166 51.5867C36.9612 51.6715 37.0752 51.794 37.1586 51.9541C37.2428 52.1135 37.2848 52.3055 37.2848 52.5301ZM36.9053 52.5301C36.9053 52.372 36.8804 52.2386 36.8309 52.13C36.7821 52.0208 36.7142 51.9385 36.6273 51.8828C36.5405 51.8266 36.4404 51.7984 36.3272 51.7984C36.2139 51.7984 36.1139 51.8266 36.027 51.8828C35.9402 51.9385 35.8719 52.0208 35.8224 52.13C35.7737 52.2386 35.7491 52.372 35.7491 52.5301C35.7491 52.688 35.7737 52.8218 35.8224 52.931C35.8719 53.0396 35.9402 53.122 36.027 53.1782C36.1139 53.234 36.2139 53.2617 36.3272 53.2617C36.4404 53.2617 36.5405 53.234 36.6273 53.1782C36.7142 53.122 36.7821 53.0396 36.8309 52.931C36.8804 52.8218 36.9053 52.688 36.9053 52.5301ZM38.9555 51.488H39.333V52.8496C39.333 52.9988 39.2978 53.1302 39.2273 53.2434C39.1574 53.3567 39.059 53.4452 38.9321 53.5091C38.8052 53.5721 38.657 53.6036 38.4874 53.6036C38.3171 53.6036 38.1686 53.5721 38.0417 53.5091C37.9148 53.4452 37.8164 53.3567 37.7465 53.2434C37.6766 53.1302 37.6418 52.9988 37.6418 52.8496V51.488H38.0192V52.818C38.0192 52.9049 38.0383 52.9823 38.0762 53.0501C38.1149 53.1179 38.1692 53.1712 38.2391 53.2098C38.309 53.2478 38.3918 53.2668 38.4874 53.2668C38.583 53.2668 38.6658 53.2478 38.7356 53.2098C38.8062 53.1712 38.8605 53.1179 38.8985 53.0501C38.9366 52.9823 38.9555 52.9049 38.9555 52.818V51.488ZM39.7434 53.5721V51.488H40.5249C40.6851 51.488 40.8193 51.5158 40.9279 51.5714C41.0371 51.6271 41.1196 51.7051 41.1753 51.8054C41.2315 51.9052 41.2597 52.0216 41.2597 52.1546C41.2597 52.2881 41.2312 52.4042 41.1742 52.5026C41.1178 52.6003 41.0347 52.6759 40.9249 52.7294C40.815 52.7825 40.68 52.8089 40.5198 52.8089H39.9633V52.4954H40.4689C40.5627 52.4954 40.6392 52.4825 40.6989 52.4567C40.7587 52.4303 40.8028 52.3919 40.8313 52.3418C40.8604 52.2908 40.875 52.2284 40.875 52.1546C40.875 52.0805 40.8604 52.0175 40.8313 51.9653C40.8021 51.9124 40.7577 51.8723 40.698 51.8452C40.6383 51.8174 40.5612 51.8035 40.467 51.8035H40.1209V53.5721H39.7434ZM40.8201 52.6277L41.3359 53.5721H40.9147L40.4079 52.6277H40.8201ZM44.1019 52.1912H43.7213C43.7105 52.1288 43.6906 52.0735 43.6613 52.0253C43.6321 51.9764 43.5958 51.935 43.5524 51.9011C43.5091 51.8672 43.4595 51.8417 43.4038 51.8248C43.3489 51.8072 43.2895 51.7984 43.2258 51.7984C43.1125 51.7984 43.012 51.8269 42.9245 51.8839C42.8371 51.9401 42.7684 52.0229 42.7189 52.1321C42.6694 52.2407 42.6447 52.3733 42.6447 52.5301C42.6447 52.6895 42.6694 52.8238 42.7189 52.9331C42.7692 53.0416 42.8377 53.1236 42.9245 53.1793C43.012 53.2343 43.1122 53.2617 43.2247 53.2617C43.2871 53.2617 43.3456 53.2535 43.3998 53.2373C43.4548 53.2203 43.504 53.1956 43.5473 53.163C43.5914 53.1305 43.6285 53.0904 43.6582 53.0429C43.6888 52.9955 43.7098 52.9412 43.7213 52.8801L44.1019 52.8821C44.0878 52.9811 44.0569 53.0741 44.0093 53.161C43.9625 53.2478 43.9012 53.3245 43.8251 53.3909C43.7491 53.4568 43.6603 53.5083 43.5586 53.5457C43.4568 53.5823 43.3438 53.6006 43.2196 53.6006C43.0365 53.6006 42.873 53.5583 42.7291 53.4734C42.5854 53.3885 42.472 53.2661 42.3892 53.106C42.3064 52.946 42.265 52.754 42.265 52.5301C42.265 52.3055 42.3069 52.1135 42.3903 51.9541C42.4738 51.794 42.5874 51.6715 42.7312 51.5867C42.875 51.5018 43.0378 51.4595 43.2196 51.4595C43.3357 51.4595 43.4435 51.4757 43.5433 51.5083C43.643 51.5408 43.7319 51.5887 43.81 51.6518C43.888 51.7142 43.952 51.7909 44.0023 51.8818C44.0531 51.9721 44.0863 52.0751 44.1019 52.1912ZM46.3099 52.5301C46.3099 52.7546 46.2679 52.9469 46.1838 53.1071C46.1003 53.2664 45.9864 53.3885 45.8419 53.4734C45.698 53.5583 45.5349 53.6006 45.3523 53.6006C45.1699 53.6006 45.0064 53.5583 44.8618 53.4734C44.7181 53.3879 44.6041 53.2655 44.52 53.106C44.4364 52.946 44.3947 52.754 44.3947 52.5301C44.3947 52.3055 44.4364 52.1135 44.52 51.9541C44.6041 51.794 44.7181 51.6715 44.8618 51.5867C45.0064 51.5018 45.1699 51.4595 45.3523 51.4595C45.5349 51.4595 45.698 51.5018 45.8419 51.5867C45.9864 51.6715 46.1003 51.794 46.1838 51.9541C46.2679 52.1135 46.3099 52.3055 46.3099 52.5301ZM45.9304 52.5301C45.9304 52.372 45.9056 52.2386 45.856 52.13C45.8073 52.0208 45.7393 51.9385 45.6526 51.8828C45.5657 51.8266 45.4657 51.7984 45.3523 51.7984C45.2391 51.7984 45.139 51.8266 45.0522 51.8828C44.9653 51.9385 44.8972 52.0208 44.8476 52.13C44.7988 52.2386 44.7744 52.372 44.7744 52.5301C44.7744 52.688 44.7988 52.8218 44.8476 52.931C44.8972 53.0396 44.9653 53.122 45.0522 53.1782C45.139 53.234 45.2391 53.2617 45.3523 53.2617C45.4657 53.2617 45.5657 53.234 45.6526 53.1782C45.7393 53.122 45.8073 53.0396 45.856 52.931C45.9056 52.8218 45.9304 52.688 45.9304 52.5301ZM47.7996 52.0609C47.7901 51.9721 47.7499 51.9029 47.6794 51.8533C47.6095 51.8038 47.5186 51.779 47.4067 51.779C47.328 51.779 47.2605 51.7909 47.2042 51.8147C47.148 51.8384 47.1048 51.8705 47.0749 51.9113C47.0451 51.952 47.0299 51.9985 47.0292 52.0508C47.0292 52.0942 47.0391 52.1318 47.0587 52.1636C47.0791 52.1956 47.1066 52.2227 47.1411 52.2451C47.1757 52.2668 47.2141 52.2851 47.2561 52.3001C47.2981 52.315 47.3406 52.3276 47.3833 52.3376L47.5786 52.3865C47.6574 52.4048 47.7331 52.4297 47.8057 52.4609C47.8789 52.4921 47.9443 52.5314 48.0021 52.5788C48.0604 52.6264 48.1066 52.6838 48.1405 52.7509C48.1744 52.818 48.1914 52.8968 48.1914 52.987C48.1914 53.1091 48.16 53.2166 48.0976 53.3096C48.0352 53.4018 47.9451 53.474 47.827 53.5263C47.7097 53.5778 47.5675 53.6036 47.4006 53.6036C47.2384 53.6036 47.0977 53.5785 46.9783 53.5283C46.8595 53.4782 46.7667 53.4049 46.6995 53.3085C46.633 53.2121 46.597 53.0948 46.5916 52.9565H46.963C46.9684 53.0291 46.9909 53.0894 47.0302 53.1376C47.0695 53.1857 47.1208 53.2217 47.1838 53.2454C47.2476 53.2691 47.3188 53.2811 47.3976 53.2811C47.4796 53.2811 47.5516 53.2688 47.6133 53.2445C47.6757 53.2193 47.7246 53.1848 47.7598 53.1407C47.7952 53.0959 47.8131 53.0435 47.8138 52.9838C47.8131 52.9296 47.7972 52.8848 47.766 52.8496C47.7348 52.8137 47.691 52.7837 47.6347 52.76C47.5791 52.7356 47.514 52.7138 47.4393 52.6949L47.2021 52.6339C47.0305 52.5898 46.8949 52.523 46.7952 52.4333C46.696 52.3432 46.6465 52.2233 46.6465 52.0742C46.6465 51.9514 46.6798 51.8438 46.7463 51.7516C46.8135 51.6593 46.9047 51.5878 47.02 51.5368C47.1354 51.4853 47.266 51.4595 47.4118 51.4595C47.5597 51.4595 47.6893 51.4853 47.8006 51.5368C47.9125 51.5878 48.0004 51.6586 48.0642 51.7495C48.1279 51.8398 48.1608 51.9436 48.1629 52.0609H47.7996ZM48.4363 51.8045V51.488H50.0992V51.8045H49.455V53.5721H49.0806V51.8045H48.4363Z" fill="white"/>
<path d="M53.2935 54.2088C54.3486 54.2088 55.2039 53.3535 55.2039 52.2984C55.2039 51.2433 54.3486 50.3879 53.2935 50.3879C52.2384 50.3879 51.383 51.2433 51.383 52.2984C51.383 53.3535 52.2384 54.2088 53.2935 54.2088Z" fill="white"/>
<defs>
<linearGradient id="paint0_linear_1455_174" x1="40" y1="0" x2="40" y2="80" gradientUnits="userSpaceOnUse">
<stop stop-color="#E892FD"/>
<stop offset="1" stop-color="#FE6A93"/>
</linearGradient>
</defs>
</svg>
